<svg xmlns="http://www.w3.org/2000/svg" viewBox="0 0 588.08 133.41"><defs><style>.cls-1{fill:#f81570;}.cls-2{fill:#fff;}</style></defs><g id="Layer_2" data-name="Layer 2"><g id="Vit"><path class="cls-1" d="M76.42,45.16H51.56L39.12,66.69,51.56,88.22H76.42L88.85,66.69Zm-5.22,34H56.78L49.57,66.69l7.21-12.48H71.2l7.2,12.48Z"/><path class="cls-2" d="M76.42,0H51.56L39.13,21.53,51.56,43.06H76.42L88.85,21.53ZM71.2,34H56.78L49.57,21.53,56.78,9.05H71.2l7.2,12.48Z"/><path class="cls-2" d="M37.29,22.58H12.43L0,44.11,12.43,65.64H37.29L49.72,44.11Zm-5.46,34H17.42L10.21,44.11l7.21-12.49H31.83L39,44.11Z"/><path class="cls-2" d="M37.3,67.75H12.44L0,89.28l12.43,21.53H37.3L49.73,89.28Zm-5,34H17.9L10.69,89.28,17.9,76.79H32.31l7.21,12.49Z"/><path class="cls-2" d="M76.41,90.35H51.55L39.12,111.88l12.43,21.53H76.41l12.43-21.53Zm-5.25,34H56.74l-7.2-12.49,7.2-12.48H71.16l7.21,12.48Z"/><path class="cls-2" d="M111.23,47V31.7H175.8V47H152.15v58.19H134.88V47Z"/><path class="cls-2" d="M188.12,45.34V31.7H226V45.34H215.84v46.2H226v13.64H188.12V91.54h10.34V45.34Z"/><path class="cls-2" d="M241.47,31.7H298V47H258.85V59.75h23.87V75H258.85V89.89H298v15.29H241.47Z"/><path class="cls-2" d="M309.67,105.18V31.7h28.27c19,0,33.33,4.51,33.33,22.77,0,8.36-3.74,17.38-17.71,21.12l21.34,29.59H354.77L334.86,77.46h-7.81v27.72Zm17.38-42.24h11.44c8.14,0,14.41-1.43,14.41-8.25s-6.27-8.36-14.41-8.36H327.05Z"/><path class="cls-2" d="M400.76,82.19c2,7,7.92,10.34,16.06,10.34,6.27,0,13.09-2,13.09-7.7,0-5.17-5.5-7.7-13.42-9.24l-8.91-1.76c-12-2.31-22.33-8.14-22.33-20.68,0-15.73,16.39-22.77,31.13-22.77,11.88,0,23.54,4.62,28.16,16l-15.73,5.72c-2-4.95-7-7.7-14-7.7-6.71,0-11.77,2.53-11.77,7,0,3.74,3.3,6.49,8.36,7.48l9.9,2c11.88,2.42,26.4,6.16,26.4,21.34,0,15.62-15.84,24.31-31,24.31-16.06,0-27.28-6.82-31.79-18.59Z"/><path class="cls-2" d="M458.5,31.7H515V47H475.88V59.75h23.87V75H475.88V89.89H515v15.29H458.5Z"/><path class="cls-2" d="M523.51,47V31.7h64.57V47H564.43v58.19H547.16V47Z"/></g></g></svg>