<svg xmlns="http://www.w3.org/2000/svg" viewBox="0 0 88.85 133.41"><defs><style>.cls-1{fill:#f81570;}.cls-2{fill:#fff;}</style></defs><g id="Layer_2" data-name="Layer 2"><g id="Vit"><path class="cls-1" d="M76.42,45.16H51.56L39.12,66.69,51.56,88.22H76.42L88.85,66.69Zm-5.22,34H56.78L49.57,66.69l7.21-12.48H71.2l7.2,12.48Z"/><path class="cls-2" d="M76.42,0H51.56L39.13,21.53,51.56,43.06H76.42L88.85,21.53ZM71.2,34H56.78L49.57,21.53,56.78,9.05H71.2l7.2,12.48Z"/><path class="cls-2" d="M37.29,22.58H12.43L0,44.11,12.43,65.64H37.29L49.72,44.11Zm-5.46,34H17.42L10.21,44.11l7.21-12.49H31.83L39,44.11Z"/><path class="cls-2" d="M37.3,67.75H12.44L0,89.28l12.43,21.53H37.3L49.73,89.28Zm-5,34H17.9L10.69,89.28,17.9,76.79H32.31l7.21,12.49Z"/><path class="cls-2" d="M76.41,90.35H51.55L39.12,111.88l12.43,21.53H76.41l12.43-21.53Zm-5.25,34H56.74l-7.2-12.49,7.2-12.48H71.16l7.21,12.48Z"/></g></g></svg>