<svg xmlns="http://www.w3.org/2000/svg" width="53.951" height="53.948" viewBox="0 0 53.951 53.948">
  <g id="color-palette-outline" transform="translate(-61.985 -62)">
    <path id="Path_1014" data-name="Path 1014" d="M111.608,100.928a6.074,6.074,0,0,0-3.2-1.171,4.761,4.761,0,0,1-2.94-1.3,3.606,3.606,0,0,1,0-5.7l3.941-3.5a12.664,12.664,0,0,0,0-19.407A25.008,25.008,0,0,0,92.786,64a31.445,31.445,0,0,0-20.656,7.817c-10.861,9.6-10.861,25.325,0,34.924a30.453,30.453,0,0,0,19.888,7.206h.221c7.206,0,14.308-2.328,19.355-6.816A4.392,4.392,0,0,0,111.608,100.928Z" transform="translate(0)" fill="none" stroke="#fff" stroke-miterlimit="10" stroke-width="4"/>
    <circle id="Ellipse_618" data-name="Ellipse 618" cx="4.567" cy="4.567" r="4.567" transform="translate(70.837 78.285)" fill="#fff"/>
    <circle id="Ellipse_619" data-name="Ellipse 619" cx="4.567" cy="4.567" r="4.567" transform="translate(71.979 91.422)" fill="#fff"/>
    <circle id="Ellipse_620" data-name="Ellipse 620" cx="4.567" cy="4.567" r="4.567" transform="translate(80.313 70.85)" fill="#fff"/>
    <circle id="Ellipse_621" data-name="Ellipse 621" cx="6.85" cy="6.85" r="6.85" transform="translate(82.111 95.538)" fill="#fff"/>
    <circle id="Ellipse_622" data-name="Ellipse 622" cx="4.567" cy="4.567" r="4.567" transform="translate(93.577 70.85)" fill="#fff"/>
  </g>
</svg>
