<svg xmlns="http://www.w3.org/2000/svg" width="51.689" height="45.946" viewBox="0 0 51.689 45.946">
  <path id="Icon_awesome-brain" data-name="Icon awesome-brain" d="M18.666,0A5.726,5.726,0,0,0,13.12,4.325c-.072,0-.126-.018-.2-.018a5.749,5.749,0,0,0-5.743,5.743,5.292,5.292,0,0,0,.153,1.256,7.117,7.117,0,0,0-3.715,9.772,7.152,7.152,0,0,0,.817,12.833,6.576,6.576,0,0,0-.126,1.265,6.457,6.457,0,0,0,6.461,6.461,6.084,6.084,0,0,0,1.077-.108,6.446,6.446,0,0,0,12.563-2.046V5.743A5.749,5.749,0,0,0,18.666,0ZM51.689,27.28a7.142,7.142,0,0,0-3.616-6.2,7.063,7.063,0,0,0,.745-3.132,7.179,7.179,0,0,0-4.46-6.641,5.69,5.69,0,0,0-5.591-7c-.072,0-.135.018-.2.018A5.732,5.732,0,0,0,27.28,5.743V39.485a6.446,6.446,0,0,0,12.563,2.046,6.084,6.084,0,0,0,1.077.108,6.457,6.457,0,0,0,6.461-6.461,6.576,6.576,0,0,0-.126-1.265A7.179,7.179,0,0,0,51.689,27.28Z" fill="#fff"/>
</svg>
