<svg xmlns="http://www.w3.org/2000/svg" width="500.036" height="162.146" viewBox="0 0 500.036 162.146"><g transform="translate(-20 -80.541)"><g transform="translate(20 80.541)"><path d="M48.825,125.336c-.29-.624-1.23-2.038-4.207-4.514l-21.3-16.634.817-2.8L20.352,98.32,17.814,107l-.808,2.758,21.263,16.389L12.5,125.09c-.2.694-3.8,12.99-4.04,13.789l4.523-2.125,23.45,18.373s2.635,4.778,3.452,6.359c.448-1.537,3.039-10.372,3.206-10.961l-21.614-17,26.173,1.405c.193-.641,1.168-3.979,1.168-3.979a11.488,11.488,0,0,0,.509-3.171A5.515,5.515,0,0,0,48.825,125.336Z" transform="translate(-1.03 -11.968)" fill="none"></path><path d="M47.891,82.05l14.2,11a7.676,7.676,0,0,1,2.327,3.2,6.2,6.2,0,0,1,.307,4.075l-3.434,11.725-4.62,1.941-14.843-11.62a5.419,5.419,0,0,1-1.8-3.46,9.239,9.239,0,0,1,.2-4.128l3.135-10.741Zm-1.133,8.835-1.291,4.391,12.5,9.828,1.3-4.391Z" transform="translate(-4.855 -9.988)" fill="#ccc"></path><path d="M55.828,53.39c1.414.975,3.258,2.292,5.542,4.049A5.593,5.593,0,0,1,62.547,58.9a7.1,7.1,0,0,1,.878,2.494,15.651,15.651,0,0,1-.061,3.153Q66,61.988,67.755,62.489a11.523,11.523,0,0,1,2.064,1.546l.764-2.635a11.226,11.226,0,0,1,2.969,3.258,5.955,5.955,0,0,1,.061,4.391L71.663,75.7,64.5,69.735l-3.144,3.618,4.6,3.566.764-2.635a11.2,11.2,0,0,1,2.969,3.25,5.981,5.981,0,0,1,.061,4.391l-2.7,9.222-3.513-6.482-13.6-10.6-4.664,2.2L51.243,56Zm-.878,9.257L53.676,67.1l3.654,2.635,1.256-4.268Z" transform="translate(-5.512 -6.499)" fill="#ccc"></path><path d="M64.978,22.12c1.405.984,3.258,2.327,5.542,4.04A5.57,5.57,0,0,1,71.7,27.609a7.335,7.335,0,0,1,.878,2.5,15.813,15.813,0,0,1-.079,3.144Q75.131,30.7,76.887,31.2a12.428,12.428,0,0,1,2.064,1.546l.764-2.635a11.03,11.03,0,0,1,2.889,3.32,6,6,0,0,1,.07,4.391l-1.95,6.649-7.079-5.92L70.5,42.171l4.628,3.487.764-2.635a11.2,11.2,0,0,1,2.969,3.25,6,6,0,0,1,.061,4.391l-2.731,9.222L72.68,53.4,59.094,42.795l-4.664,2.2,5.963-20.262ZM64.1,31.377,62.835,35.83l3.68,2.635L67.762,34.2Z" transform="translate(-6.626 -2.692)" fill="#ccc"></path><path d="M336.2,78.55l-7.711,18.584h-6.569L299.833,152.72a31.847,31.847,0,0,1-8.95,11.215q-6.692,5.34-13.6,5.331H233.638L222.22,155.443,247.04,92.76,236.817,78.55h46.127l-28.983,72.089h16.555l26.3-63.367-7.6-8.721Z" transform="translate(-27.05 -9.562)" fill="#ccc"></path><path d="M414.638,138.4q-2.5,6.578-5.788,14.931a27.23,27.23,0,0,1-7.7,10.812q-5.893,5.1-12.243,5.1H316.14l18.927-18.813,23-57.922L345.72,78.55h54.857l-7.369,18.022h-6.227L365.1,149.725H382.45l5.322-11.33Z" transform="translate(-38.483 -9.562)" fill="#ccc"></path><path d="M551.243,78.55l-6.921,18.128H537.3a55.74,55.74,0,0,1-1.923,5.788q-2.634,6.007-5.445,7.588a62.916,62.916,0,0,1-13.832,5.1q-7.123,1.554-14.272,3.311,6.35,3.4,12.7,6.921,7.9,5.322,7.9,10.882,0,1.361-6.236,14.729h9.863q-4.391,10.214-8.273,13.6-5.112,4.655-15.072,4.646H479l14.931-35.131-15.756-7.255-9.213,24.1h9.854q-4.39,10.214-8.273,13.6-5.1,4.655-15.071,4.646h-34.8L439.6,150.4l23.011-57.922L450.25,78.55h47.945l-12.12,28.79,19.6-5L511,89.66l-7.132-11.11Z" transform="translate(-51.207 -9.562)" fill="#ccc"></path><path d="M155.252,0h-84.7L92.1,29.036C90.866,33.26,53.82,160.179,53.82,160.179h69.3c8.73,0,17.671-3.206,26.6-9.52a62.779,62.779,0,0,0,18.338-20.2l-.053.1,53.513-91.165h14.808L252.468.193h-76.41s-2.688,15.695-2.925,17.1L133.8,85.254,161.417,0Z" transform="translate(-6.551)" fill="#ccc"></path><path d="M246.631,5.293,234.15,35.532H219.782L164.969,128.91a58.089,58.089,0,0,1-17.012,18.716q-12.3,8.695-24.012,8.695H60.63l37.212-127.6-.185-.193L80.277,5.1h75.795L117.331,124.756,178.2,19.469l2.433-14.175Z" transform="translate(-7.38 -0.62)" fill="#ffff41"></path><path d="M16.2,91.833l-5.27,17.759,14.483,11.321-17.662-.826L0,146.04l10.583-4.91L32.5,158.415l7.825,14.6,6.973-23.353-14.869-11.8L50.5,138.926l2.2-7.193a16.037,16.037,0,0,0,.729-4.541A9.547,9.547,0,0,0,52.547,123c-.782-1.7-2.582-3.724-5.489-6.148l-20.2-15.967c.246-.878.878-2.9.878-2.9L16.968,89.26Z" transform="translate(0 -10.866)" fill="#ccc"></path><path d="M18.312,92.77l7.676,6.253-.878,2.916,21.079,16.687q4.022,3.373,5.032,5.568c.992,1.967.992,4.444.114,7.421l-1.757,5.832-22.308-1.273,18.347,14.579-5.384,18.022-5.946-11.093L11.225,139.468l-7.975,3.7,6.218-20.789,21.9,1.019L13.359,109.343Z" transform="translate(-0.395 -11.293)" fill="#ffff41"></path></g></g></svg>