<svg xmlns="http://www.w3.org/2000/svg" viewBox="0 0 1128.51 256.74"><defs><style>.cls-1{fill:#fff;}.cls-2,.cls-6{fill:#5564dc;}.cls-3{fill:#323031;}.cls-4{fill:#8893e7;}.cls-5{stroke:#000;stroke-miterlimit:10;}.cls-6{opacity:0.5;}</style></defs><g id="Layer_2" data-name="Layer 2"><g id="Layer_2-2" data-name="Layer 2"><path d="M284.08,147.89h-46V176.7H271.2v10.53H238.09V221h46.27v11.91H226V136h58Z"/><path d="M332.42,232.94h-15.1l-25.21-97h12.06l21.6,82.27L347,136h11.36Z"/><path d="M426.75,147.89h-46V176.7h33.1v10.53h-33.1V221H427v11.91H368.72V136h58Z"/><path d="M502.8,232.94H491l-40.59-81.31v81.31H439.92V136h15.79l36.57,74V136H502.8Z"/><path d="M578.3,147.33H551.42v85.61h-12V147.33H512.5V136h65.8Z"/><path d="M643,163.4h-12V155L624,147.89H601.29L594.37,155v17.18l5.12,5h33.39l10.94,10.81v30.61l-14.41,14.41H596.86l-14.41-14.41V200.8h11.92v12.74l7.48,7.49h22.58l7.48-7.49V193.46l-5.13-5.12H593.67l-11.22-11.09V149.69L596,136h33.24L643,149.69Z"/><path d="M713.91,147.33H687v85.61H675V147.33H648.11V136h65.8Z"/><path d="M783.86,218.12,769,232.94H738.15l-14.82-14.82V136h11.91v76.6l8.45,8.45h20.09l8.45-8.45V136h11.63Z"/><path d="M860.74,213.41l-19.53,19.53H799.38V136H842l18.7,18.7Zm-49.31-65.52V221h25.76l11.64-11.64V159.11l-11.08-11.22Z"/><path d="M888.31,232.94h-12V136h12Z"/><path d="M967.13,217.28l-15.79,15.66H919.48l-15.66-15.66V150.94l15-15h33.39l15,15Zm-43.5-69.39-7.89,7.89v56.8l8.31,8.45h22.71l8.31-8.45v-56.8l-7.89-7.89Z"/><path d="M986.52,232.94H975.16V219.09h11.36Z"/><path d="M1055.09,163.4h-12V155l-6.93-7.06H1013.4l-6.93,7.06v17.18l5.13,5H1045l10.94,10.81v30.61l-14.41,14.41H1009l-14.4-14.41V200.8h11.91v12.74L1014,221h22.58l7.48-7.49V193.46l-5.13-5.12h-33.1l-11.22-11.09V149.69L1008.13,136h33.25l13.71,13.71Z"/><path d="M1128.23,147.89h-46V176.7h33.11v10.53h-33.11V221h46.27v11.91h-58.32V136h58Z"/><path d="M293.86,56.4l-9.39,9.54,10,9.86V106L277.7,122.59H226.59V14.84h51.26l16,16ZM244.3,32.54V59.17h25.85L276.31,53V38.85l-6.16-6.31Zm0,41.1V105h25.85l6.62-6.62V79.8l-6.15-6.16Z"/><path d="M380.36,104.58l-18.17,18H326.33l-18-18V32.24l17.24-17.4h37.56l17.24,17.4ZM333,32.54,326,39.47v58l7.24,7.54h22l7.39-7.54v-58l-7.08-6.93Z"/><path d="M438.38,54.25l31.55,68.34h-18L427.61,68.72,413.91,86v36.63H395.59V14.84h18.32v45.1l36-45.1h19.4Z"/><path d="M553.66,122.59H535.35l-6.47-25.86H499.64l-6.31,25.86h-16L505,14.84h22ZM502.25,85.34h24l-12.16-48Z"/><path d="M184.37,39.17V89.35H173.75V39.16a2.22,2.22,0,0,0-.63-1.53L146.74,11.25a2.22,2.22,0,0,0-1.54-.63H59.1a2.2,2.2,0,0,0-1.54.63L31.18,37.63a2.22,2.22,0,0,0-.63,1.53V89.35H19.92V39.17a12.75,12.75,0,0,1,3.75-9L50.05,3.74A12.71,12.71,0,0,1,59.1,0h86.1a12.68,12.68,0,0,1,9.05,3.74l26.38,26.38A12.7,12.7,0,0,1,184.37,39.17Z"/><path d="M184.37,162v55.58a12.68,12.68,0,0,1-3.74,9.05L154.25,253a12.68,12.68,0,0,1-9.05,3.74H59.1A12.71,12.71,0,0,1,50.05,253L23.67,226.62a12.73,12.73,0,0,1-3.75-9.05V162H30.55v55.57a2.2,2.2,0,0,0,.63,1.54h0l26.38,26.38a2.2,2.2,0,0,0,1.54.63h86.1a2.22,2.22,0,0,0,1.54-.63l26.38-26.38h0a2.2,2.2,0,0,0,.63-1.54V162Z"/><path d="M103.8,80.17l-1.65,1.65-7.49,7.53h0l.41.4a10,10,0,0,0,14.16,0l2.1-2.07v0Zm0,0-1.65,1.65-7.49,7.53h0l.41.4a10,10,0,0,0,14.16,0l2.1-2.07v0Zm0,0-1.65,1.65-7.49,7.53h0l.41.4a10,10,0,0,0,14.16,0l2.1-2.07v0Zm0,0-1.65,1.65-7.49,7.53h0l.41.4a10,10,0,0,0,14.16,0l2.1-2.07v0Zm0,0-1.65,1.65-7.49,7.53h0l.41.4a10,10,0,0,0,14.16,0l2.1-2.07v0Zm0,0-1.65,1.65-7.49,7.53h0l.41.4a10,10,0,0,0,14.16,0l2.1-2.07v0ZM194.29,84H177l-3.24-3.23L158.9,65.94l-3.18-3.19a10.13,10.13,0,0,0-4.15-2.48,9.73,9.73,0,0,0-2.95-.46h-20.3a9.93,9.93,0,0,0-7.08,2.94L103.8,80.17l-1.65,1.65L83.07,62.75A10,10,0,0,0,76,59.81H55.67a9.81,9.81,0,0,0-2.94.46,10,10,0,0,0-4.14,2.48L27.32,84H10A10,10,0,0,0,0,94v63.23a10,10,0,0,0,10,10H27.32l3.23,3.24L45.4,185.37l3.19,3.19a9.78,9.78,0,0,0,.77.69c.2.17.42.33.63.48A9.88,9.88,0,0,0,52.73,191a8.3,8.3,0,0,0,1.09.28,5.77,5.77,0,0,0,.71.1,1.63,1.63,0,0,0,.31,0,7.7,7.7,0,0,0,.83.05h93a10.37,10.37,0,0,0,1.12-.06l.79-.12.11,0a3.33,3.33,0,0,0,.75-.2.39.39,0,0,0,.18,0,3.19,3.19,0,0,0,.57-.2,3.57,3.57,0,0,0,.57-.23l.56-.26.37-.22a5.21,5.21,0,0,0,.55-.32c.22-.14.42-.3.62-.45l.21-.17a8.47,8.47,0,0,0,.7-.63l3.18-3.19,14.85-14.86,3.24-3.24h17.3a10,10,0,0,0,10-10V94A10,10,0,0,0,194.29,84Zm-.6,72.63H176.74a10.07,10.07,0,0,0-7.08,2.94L167.27,162h0l-13,13h0l-2.68,2.67v0l-3.2,3.18H55.93l-3.2-3.18v0L50.05,175h0L34.65,159.61v0a10.13,10.13,0,0,0-7.08-2.94h-17v-62h17a10.11,10.11,0,0,0,7.08-2.92L48.24,78.13h0l4.48-4.48v0l3.2-3.18v0H75.74v0l18.92,18.9h0l.41.4a10,10,0,0,0,14.16,0l2.1-2.07v0l17.23-17.22v0h19.81v0l3.2,3.18v0l4.48,4.48h0l13.59,13.59a10.05,10.05,0,0,0,7.08,2.92h16.95ZM103.8,80.17l-1.65,1.65-7.49,7.53h0l.41.4a10,10,0,0,0,14.16,0l2.1-2.07v0Zm0,0-1.65,1.65-7.49,7.53h0l.41.4a10,10,0,0,0,14.16,0l2.1-2.07v0Zm0,0-1.65,1.65-7.49,7.53h0l.41.4a10,10,0,0,0,14.16,0l2.1-2.07v0Zm0,0-1.65,1.65-7.49,7.53h0l.41.4a10,10,0,0,0,14.16,0l2.1-2.07v0Zm0,0-1.65,1.65-7.49,7.53h0l.41.4a10,10,0,0,0,14.16,0l2.1-2.07v0Z"/><path class="cls-1" d="M151.57,199.26v5.88a1.52,1.52,0,0,1-.44,1.06l-18.21,18.21a1.53,1.53,0,0,1-1.06.43H72.45a1.51,1.51,0,0,1-1.06-.43L53.18,206.2a1.53,1.53,0,0,1-.45-1.06v-5.88a1.53,1.53,0,0,0,.45,1.06l18.21,18.21a1.51,1.51,0,0,0,1.06.43h59.41a1.53,1.53,0,0,0,1.06-.43l18.21-18.21A1.52,1.52,0,0,0,151.57,199.26Z"/><path class="cls-2" d="M173.75,170.51v47.05a2.2,2.2,0,0,1-.63,1.54h0l-26.38,26.37a2.22,2.22,0,0,1-1.54.63H59.1a2.2,2.2,0,0,1-1.54-.63L31.18,219.11h0a2.2,2.2,0,0,1-.63-1.54V170.51L45.4,185.37v13.89A8.86,8.86,0,0,0,48,205.51l18.21,18.2a8.74,8.74,0,0,0,6.25,2.58h59.41a8.74,8.74,0,0,0,6.25-2.58l18.21-18.2a8.85,8.85,0,0,0,2.58-6.25V185.37Z"/><path class="cls-3" d="M158.9,185.37v13.89a8.85,8.85,0,0,1-2.58,6.25l-18.21,18.2a8.74,8.74,0,0,1-6.25,2.58H72.45a8.74,8.74,0,0,1-6.25-2.58L48,205.51a8.86,8.86,0,0,1-2.59-6.25V185.37l3.19,3.19a9.78,9.78,0,0,0,.77.69c.2.17.42.33.63.48A9.88,9.88,0,0,0,52.73,191v14.1a1.53,1.53,0,0,0,.45,1.06l18.21,18.21a1.51,1.51,0,0,0,1.06.43h59.41a1.53,1.53,0,0,0,1.06-.43l18.21-18.21a1.52,1.52,0,0,0,.44-1.06V191a3.19,3.19,0,0,0,.57-.2,3.57,3.57,0,0,0,.57-.23l.56-.26.37-.22a5.21,5.21,0,0,0,.55-.32c.22-.14.42-.3.62-.45l.21-.17a8.47,8.47,0,0,0,.7-.63Z"/><path class="cls-4" d="M167.28,162l-18.9,18.88H55.94L34.65,159.6a10.11,10.11,0,0,0-7.08-2.94h-17v-62h17a10.09,10.09,0,0,0,7.08-2.92L55.94,70.44h19.8L94.66,89.36,83.79,100.28a12.71,12.71,0,0,0-3.69,9,12.45,12.45,0,0,0,3.65,8.87l4.37,4.58a12.68,12.68,0,0,0,17.93,0L117,111.87Z"/><path class="cls-2" d="M193.69,94.65v62H177L117,96.88,98.55,115.21a2.11,2.11,0,0,1-2.84.1l-4.37-4.61a2.08,2.08,0,0,1,0-2.94l17.92-18,2.09-2.09,17.24-17.24h19.81l21.28,21.29a10.07,10.07,0,0,0,7.08,2.92Z"/><path class="cls-1" d="M151.57,49.78v7.69a1.5,1.5,0,0,0-.44-1.06L132.92,38.2a1.5,1.5,0,0,0-1.06-.44H72.45a1.48,1.48,0,0,0-1.06.44L53.18,56.41a1.51,1.51,0,0,0-.45,1.06V49.78a1.53,1.53,0,0,1,.45-1.07l18.21-18.2a1.49,1.49,0,0,1,1.06-.45h59.41a1.51,1.51,0,0,1,1.06.45l18.21,18.2A1.52,1.52,0,0,1,151.57,49.78Z"/><path class="cls-4" d="M173.75,39.16V80.79L158.9,65.94V57.47a8.78,8.78,0,0,0-2.58-6.25L138.11,33c-1.42-1.41-3.22-.75-5.19-1a1.54,1.54,0,0,0-1.06-.44H72.45a1.52,1.52,0,0,0-1.06.44c-2,.22-3.78-.44-5.19,1L48,51.22a8.79,8.79,0,0,0-2.59,6.25v8.47L30.55,80.79V39.16a2.22,2.22,0,0,1,.63-1.53L57.56,11.25a2.2,2.2,0,0,1,1.54-.63h86.1a2.22,2.22,0,0,1,1.54.63l26.38,26.38A2.22,2.22,0,0,1,173.75,39.16Z"/><polygon class="cls-3" points="57.56 11.25 31.18 37.63 31.18 37.62 57.56 11.25"/><path class="cls-3" d="M71.39,30.51,53.18,48.71a1.53,1.53,0,0,0-.45,1.07V60.27a10,10,0,0,0-4.14,2.48L45.4,65.94V57.47A8.79,8.79,0,0,1,48,51.22L66.2,33A8.6,8.6,0,0,1,71.39,30.51Z"/><path class="cls-3" d="M146.74,11.24h0a2.22,2.22,0,0,0-1.54-.63H59.1a2.2,2.2,0,0,0-1.54.63h0a2.21,2.21,0,0,1,1.54-.64h86.1A2.23,2.23,0,0,1,146.74,11.24Z"/><path class="cls-3" d="M158.9,57.47v8.47l-3.18-3.19a10.13,10.13,0,0,0-4.15-2.48V49.78a1.52,1.52,0,0,0-.44-1.07l-18.21-18.2a8.63,8.63,0,0,1,5.19,2.5l18.21,18.21A8.78,8.78,0,0,1,158.9,57.47Z"/><polygon class="cls-3" points="173.12 37.62 173.12 37.63 146.74 11.25 173.12 37.62"/><path d="M178.54,158.21,174.79,162l-1,1-2.7,2.73L167.27,162,117,111.87l-10.92,10.85a12.7,12.7,0,0,1-17.93,0l-4.38-4.59a11.22,11.22,0,0,1-.81-.89,13.55,13.55,0,0,1-1.36-2,12.82,12.82,0,0,1,2.22-15L94.66,89.36h0l7.49-7.53,1.65-1.65,7.53,7.5v0l-2.1,2.07v0l-17.91,18a1.15,1.15,0,0,0-.26.33,1,1,0,0,0-.19.37,2.1,2.1,0,0,0,.46,2.24l4.37,4.6a2.07,2.07,0,0,0,1.39.51,2,2,0,0,0,1.46-.61L117,96.87l60,59.78h0v0h0Z"/><path class="cls-5" d="M158.9,57.47V72h-7.33V57.47a1.5,1.5,0,0,0-.44-1.06L132.92,38.2a1.5,1.5,0,0,0-1.06-.44H72.45a1.48,1.48,0,0,0-1.06.44L53.18,56.41a1.51,1.51,0,0,0-.45,1.06V72H45.4V57.47A8.79,8.79,0,0,1,48,51.22L66.2,33a8.6,8.6,0,0,1,5.19-2.5,5.24,5.24,0,0,1,1.06-.08h59.41a5.35,5.35,0,0,1,1.06.08,8.63,8.63,0,0,1,5.19,2.5l18.21,18.21A8.78,8.78,0,0,1,158.9,57.47Z"/><path class="cls-5" d="M158.9,178.06v21.2a8.85,8.85,0,0,1-2.58,6.25l-18.21,18.2a8.74,8.74,0,0,1-6.25,2.58H72.45a8.74,8.74,0,0,1-6.25-2.58L48,205.51a8.86,8.86,0,0,1-2.59-6.25v-21.2h7.33v21.2a1.53,1.53,0,0,0,.45,1.06l18.21,18.21a1.51,1.51,0,0,0,1.06.43h59.41a1.53,1.53,0,0,0,1.06-.43l18.21-18.21a1.52,1.52,0,0,0,.44-1.06v-21.2Z"/><rect class="cls-6" x="65.52" y="172.74" width="50.34" height="4.45" rx="2.22"/><rect class="cls-6" x="127.21" y="172.74" width="14.56" height="4.45" rx="2.22"/><rect class="cls-4" x="160.63" y="90.59" width="6.73" height="4.45" rx="1.62" transform="translate(113.66 -88.78) rotate(45)"/><rect class="cls-4" x="143.44" y="78.64" width="17.22" height="4.45" rx="2.22" transform="translate(101.71 -83.83) rotate(45)"/></g></g></svg>